# Blender v2.80 (sub 74) OBJ File: ''
# www.blender.org
o Cube.002_Cube.003
v -100.000000 -100.000015 99.999985
v 100.000000 -100.000015 99.999985
v 100.000000 99.999985 100.000015
v -100.000000 99.999985 100.000015
v 100.000000 100.000015 -99.999985
v -100.000000 100.000015 -99.999985
v 100.000000 -99.999985 -100.000015
v -100.000000 -99.999985 -100.000015
vt 1.000000 0.000000
vt 0.000000 0.000000
vt 0.000000 1.000000
vt 1.000000 1.000000
vt 1.000000 0.000000
vt 0.000000 0.000000
vt 0.000000 1.000000
vt 1.000000 1.000000
vt 1.000000 0.000000
vt 0.000000 0.000000
vt 0.000000 1.000000
vt 1.000000 1.000000
vt 1.000000 0.000000
vt 0.000000 1.000000
vt 1.000000 1.000000
vt 0.000000 0.000000
vt 0.000000 1.000000
vt 1.000000 1.000000
vt 1.000000 0.000000
vt 0.000000 0.000000
vn 0.0000 0.0000 -1.0000
vn 0.0000 -1.0000 -0.0000
vn 0.0000 -0.0000 1.0000
vn -1.0000 -0.0000 0.0000
vn 0.0000 1.0000 0.0000
vn 1.0000 0.0000 0.0000
s 1
f 1/1/1 4/2/1 3/3/1 2/4/1
f 5/5/2 3/6/2 4/7/2 6/8/2
f 7/9/3 5/10/3 6/11/3 8/12/3
f 2/13/4 3/6/4 5/14/4 7/15/4
f 2/13/5 7/16/5 8/17/5 1/18/5
f 8/19/6 6/20/6 4/7/6 1/18/6
